# xmcd CD database file generated by OrangeCD 6.4
#
# Track frame offsets:
#	150
#	16993
#	34129
#	52141
#	72336
#	86976
#	102539
#	120442
#	139997
#	162852
#	181315
#	196008
#	211573
#	225011
#	241299
#	254275
#	272003
#	284289
#	301050
#	314126
#	325464
#	338145
#
# Disc length: 4679 seconds
#
# Revision: 0
# Processed by: cddbd v1.5.2PL0 Copyright (c) Steve Scherf et al.
# Submitted via: OrangeCD 6.4
#
DISCID=3a124516
DTITLE=Various Artist - Chrysalis Music 2010 Nashville Summer Country
DYEAR=2010
DGENRE=
TTITLE0=Gary Allan - I Think They've Had Enough
TTITLE1=Dierks Bentley - Life On The Run
TTITLE2=Dierks Bentley - I Wanna Make You Close Your Eyes
TTITLE3=Dierks Bentley - Here She Comes
TTITLE4=Dierks Bentley Feat. Patty Griffin - Beautiful Worl
TTITLE5=Dierks Bentley - Little Heartwrecker
TTITLE6=Dierks Bentley - You Hold Me Together
TTITLE7=Brooks and Dunn - Hillbilly Deluxe
TTITLE8=Eric Church - Those I've Loved
TTITLE9=Easton Corbin - I Can't Love You Back
TTITLE10=Easton Corbin - Let Alone You
TTITLE11=Easton Corbin - That'll Make You Wanna Drink
TTITLE12=Joey and Rory - Play The Song
TTITLE13=Joey and Rory - Sweet Emmylou
TTITLE14=Joey and Rory - Tonight Cowboy Your Mine
TTITLE15=Joey and Rory - Rodeo
TTITLE16=Joey and Rory - Loved The Hell
TTITLE17=Joey and Rory - To Say Goodbye
TTITLE18=Reba Mcentire - Pink Guitar
TTITLE19=Kellie Pickler - Lucky Girl
TTITLE20=Holly Williams and Chris Janson - I Hold On
TTITLE21=Holly Williams and Chris Janson - A Love I Think Will Last
EXTD=
EXTT0=
EXTT1=
EXTT2=
EXTT3=
EXTT4=
EXTT5=
EXTT6=
EXTT7=
EXTT8=
EXTT9=
EXTT10=
EXTT11=
EXTT12=
EXTT13=
EXTT14=
EXTT15=
EXTT16=
EXTT17=
EXTT18=
EXTT19=
EXTT20=
EXTT21=
PLAYORDER=
